<svg width="12" height="12" viewBox="0 0 12 12" fill="none" xmlns="http://www.w3.org/2000/svg">
<path d="M7.20592 7.21205C7.20592 7.21205 7.28954 7.12835 7.45679 6.96094C7.62404 6.79353 7.70766 6.47321 7.70766 6C7.70766 5.52679 7.54041 5.12277 7.20592 4.78795C6.87142 4.45312 6.4678 4.28571 5.99504 4.28571C5.52229 4.28571 5.11866 4.45312 4.78416 4.78795C4.44967 5.12277 4.28242 5.52679 4.28242 6C4.28242 6.47321 4.44967 6.87723 4.78416 7.21205C5.11866 7.54687 5.52229 7.71429 5.99504 7.71429C6.4678 7.71429 6.87142 7.54687 7.20592 7.21205ZM7.86153 4.1317C7.86153 4.1317 7.98975 4.26004 8.2462 4.51674C8.50265 4.77344 8.63087 5.26786 8.63087 6C8.63087 6.73214 8.37443 7.35491 7.86153 7.8683C7.34864 8.3817 6.72647 8.63839 5.99504 8.63839C5.26361 8.63839 4.64145 8.3817 4.12855 7.8683C3.61566 7.35491 3.35921 6.73214 3.35921 6C3.35921 5.26786 3.61566 4.64509 4.12855 4.1317C4.64145 3.6183 5.26361 3.36161 5.99504 3.36161C6.72647 3.36161 7.34864 3.6183 7.86153 4.1317ZM9.17276 2.8192C9.17276 2.8192 9.20286 2.84933 9.26307 2.9096C9.32328 2.96986 9.35338 3.08482 9.35338 3.25446C9.35338 3.42411 9.29318 3.5692 9.17276 3.68973C9.05234 3.81027 8.90739 3.87053 8.73791 3.87053C8.56843 3.87053 8.42349 3.81027 8.30307 3.68973C8.18265 3.5692 8.12244 3.42411 8.12244 3.25446C8.12244 3.08482 8.18265 2.93973 8.30307 2.8192C8.42349 2.69866 8.56843 2.63839 8.73791 2.63839C8.90739 2.63839 9.05234 2.69866 9.17276 2.8192ZM6.50682 1.7779C6.50682 1.7779 6.42933 1.77846 6.27435 1.77958C6.11936 1.78069 6.02626 1.78125 5.99504 1.78125C5.96382 1.78125 5.79323 1.78013 5.48326 1.7779C5.1733 1.77567 4.93803 1.77567 4.77748 1.7779C4.61692 1.78013 4.40172 1.78683 4.1319 1.79799C3.86207 1.80915 3.63238 1.83147 3.44283 1.86495C3.25329 1.89844 3.09384 1.93973 2.9645 1.98884C2.74151 2.07812 2.54527 2.20759 2.37579 2.37723C2.20631 2.54687 2.07697 2.7433 1.98778 2.96652C1.93872 3.09598 1.89746 3.25558 1.86401 3.44531C1.83056 3.63504 1.80826 3.86495 1.79711 4.13504C1.78596 4.40513 1.77927 4.62054 1.77704 4.78125C1.77481 4.94196 1.77481 5.17745 1.77704 5.48772C1.77927 5.79799 1.78039 5.96875 1.78039 6C1.78039 6.03125 1.77927 6.20201 1.77704 6.51228C1.77481 6.82254 1.77481 7.05804 1.77704 7.21875C1.77927 7.37946 1.78596 7.59487 1.79711 7.86495C1.80826 8.13504 1.83056 8.36495 1.86401 8.55469C1.89746 8.74442 1.93872 8.90402 1.98778 9.03348C2.07697 9.2567 2.20631 9.45312 2.37579 9.62277C2.54527 9.79241 2.74151 9.92187 2.9645 10.0112C3.09384 10.0603 3.25329 10.1016 3.44283 10.135C3.63238 10.1685 3.86207 10.1908 4.1319 10.202C4.40172 10.2132 4.61692 10.2199 4.77748 10.2221C4.93803 10.2243 5.1733 10.2243 5.48326 10.2221C5.79323 10.2199 5.96382 10.2187 5.99504 10.2187C6.02626 10.2187 6.19685 10.2199 6.50682 10.2221C6.81679 10.2243 7.05205 10.2243 7.21261 10.2221C7.37317 10.2199 7.58836 10.2132 7.85819 10.202C8.12801 10.1908 8.3577 10.1685 8.54725 10.135C8.7368 10.1016 8.89624 10.0603 9.02558 10.0112C9.24858 9.92187 9.44481 9.79241 9.61429 9.62277C9.78377 9.45312 9.91311 9.2567 10.0023 9.03348C10.0514 8.90402 10.0926 8.74442 10.1261 8.55469C10.1595 8.36495 10.1818 8.13504 10.193 7.86495C10.2041 7.59487 10.2108 7.37946 10.213 7.21875C10.2153 7.05804 10.2153 6.82254 10.213 6.51228C10.2108 6.20201 10.2097 6.03125 10.2097 6C10.2097 5.96875 10.2108 5.79799 10.213 5.48772C10.2153 5.17745 10.2153 4.94196 10.213 4.78125C10.2108 4.62054 10.2041 4.40513 10.193 4.13504C10.1818 3.86495 10.1595 3.63504 10.1261 3.44531C10.0926 3.25558 10.0514 3.09598 10.0023 2.96652C9.91311 2.7433 9.78377 2.54687 9.61429 2.37723C9.44481 2.20759 9.24858 2.07812 9.02558 1.98884C8.89624 1.93973 8.7368 1.89844 8.54725 1.86495C8.3577 1.83147 8.12801 1.80915 7.85819 1.79799C7.58836 1.78683 7.37317 1.78013 7.21261 1.7779C7.05205 1.77567 6.81679 1.77567 6.50682 1.7779ZM11.0995 3.87723C11.1218 4.27009 11.1329 4.97768 11.1329 6C11.1329 7.02232 11.1218 7.72991 11.0995 8.12277C11.0549 9.05134 10.7783 9.77009 10.2699 10.279C9.76147 10.7879 9.04342 11.0647 8.11575 11.1094C7.72327 11.1317 7.01637 11.1429 5.99504 11.1429C4.97371 11.1429 4.26681 11.1317 3.87433 11.1094C2.94666 11.0647 2.22861 10.7879 1.72018 10.279C1.21174 9.77009 0.935227 9.05134 0.890627 8.12277C0.868328 7.72991 0.857178 7.02232 0.857178 6C0.857178 4.97768 0.868328 4.27009 0.890627 3.87723C0.935227 2.94866 1.21174 2.22991 1.72018 1.72098C2.22861 1.21205 2.94666 0.935266 3.87433 0.890624C4.26681 0.868302 4.97371 0.857142 5.99504 0.857142C7.01637 0.857142 7.72327 0.868302 8.11575 0.890624C9.04342 0.935266 9.76147 1.21205 10.2699 1.72098C10.7783 2.22991 11.0549 2.94866 11.0995 3.87723Z" fill="white"/>
</svg>
