<svg width="12" height="12" viewBox="0 0 12 12" fill="none" xmlns="http://www.w3.org/2000/svg">
<g clip-path="url(#clip0_1_5206)">
<path d="M3.19196 4.18527V10.8214H0.984286V4.18527H3.19196ZM3.33245 2.13616C3.33691 2.46206 3.2243 2.73438 2.99461 2.95313C2.76492 3.17188 2.46276 3.28125 2.08812 3.28125H2.07474C1.70903 3.28125 1.41467 3.17188 1.19167 2.95313C0.968677 2.73438 0.857178 2.46206 0.857178 2.13616C0.857178 1.80581 0.972021 1.53237 1.20171 1.31585C1.4314 1.09933 1.73133 0.991073 2.1015 0.991073C2.47168 0.991073 2.76827 1.09933 2.99126 1.31585C3.21426 1.53237 3.32799 1.80581 3.33245 2.13616ZM11.1329 7.01786V10.8214H8.93192V7.27232C8.93192 6.80357 8.84161 6.43639 8.66098 6.17076C8.48035 5.90514 8.19826 5.77232 7.8147 5.77232C7.53372 5.77232 7.29846 5.84933 7.10891 6.00335C6.91937 6.15737 6.77776 6.34822 6.6841 6.57589C6.63504 6.70982 6.61052 6.89063 6.61052 7.11831V10.8214H4.40953C4.41845 9.04018 4.42291 7.59598 4.42291 6.48884C4.42291 5.3817 4.42068 4.72098 4.41622 4.5067L4.40953 4.18527H6.61052V5.14956H6.59714C6.68633 5.0067 6.77776 4.8817 6.87142 4.77456C6.96508 4.66741 7.09107 4.55134 7.2494 4.42634C7.40773 4.30134 7.60174 4.20424 7.83143 4.13505C8.06111 4.06585 8.31645 4.03125 8.59742 4.03125C9.36007 4.03125 9.97332 4.2846 10.4372 4.7913C10.901 5.29799 11.1329 6.04018 11.1329 7.01786Z" fill="white"/>
</g>
<defs>
<clipPath id="clip0_1_5206">
<rect width="10.29" height="12" fill="white" transform="matrix(1 0 0 -1 0.850098 12)"/>
</clipPath>
</defs>
</svg>
