<svg width="17" height="34" viewBox="0 0 17 34" fill="none" xmlns="http://www.w3.org/2000/svg">
<path d="M0.0423865 19.0601C-0.225633 17.1958 0.824416 15.9616 1.86712 14.8099C6.12606 10.1034 10.9394 5.87057 15.0772 0.951114C16.1125 -0.0484208 17.4306 1.23359 16.6412 2.59383C15.7784 4.08445 14.1005 5.64025 13.0505 7.0961C8.48316 13.4106 7.27524 22.2369 12.1657 28.886C12.7201 29.6422 14.0308 30.759 14.3869 31.4674C14.8165 32.3279 14.5448 33.3405 13.6673 33.4795C12.9991 33.5838 11.9417 32.3496 11.424 31.8498C8.25553 28.7947 4.36741 24.9922 1.51833 21.585C1.01533 20.981 0.167218 19.9032 0.0460588 19.0558L0.0423865 19.0601Z" fill="#EC2227"/>
</svg>
