<svg width="17" height="34" viewBox="0 0 17 34" fill="none" xmlns="http://www.w3.org/2000/svg">
<path d="M16.9576 14.7546C17.2256 16.619 16.1756 17.8532 15.1329 19.0048C10.8739 23.7114 6.06061 27.9442 1.92283 32.8636C0.887472 33.8632 -0.430594 32.5812 0.358778 31.2209C1.22158 29.7303 2.89945 28.1745 3.9495 26.7187C8.51684 20.4042 9.72476 11.5779 4.83433 4.92876C4.27993 4.17259 2.96921 3.05572 2.61307 2.34735C2.18351 1.48688 2.4552 0.474302 3.33269 0.335236C4.0009 0.230936 5.05829 1.46515 5.57597 1.96492C8.74447 5.02002 12.6326 8.8226 15.4817 12.2297C15.9847 12.8338 16.8328 13.9116 16.9539 14.759L16.9576 14.7546Z" fill="#EC2227"/>
</svg>
