<svg width="162" height="57" viewBox="0 0 162 57" fill="none" xmlns="http://www.w3.org/2000/svg">
<g clip-path="url(#clip0_1_5175)">
<path d="M27.336 6.19749V21.9959C27.336 22.2676 27.6173 23.1525 27.7305 23.4462C28.7313 25.9722 31.7703 26.7028 34.1116 25.6344C36.7342 24.4412 36.6428 21.57 36.7122 19.0955C36.8036 15.7985 36.6355 12.4868 36.7122 9.18976H46.3515V15.0862H43.5463V21.9078C43.5463 23.9785 45.442 25.873 47.4545 26.0786C50.6213 26.3981 52.6266 24.6247 52.8348 21.4709C53.0065 18.9119 52.6595 17.0651 53.5069 14.4914C57.3239 2.90783 77.1209 3.34841 79.7581 15.6332C80.5325 19.246 78.8157 24.6835 83.4107 25.9575C90.2703 26.3467 97.2285 25.829 104.088 26.2218C107.313 27.3894 106.546 32.0338 103.084 32.0779C96.6477 31.7107 89.6457 32.5956 83.2792 31.9861C80.6566 31.7364 78.0195 30.7451 76.1822 28.8213C74.3669 30.4073 72.0402 31.3803 69.6696 31.7805C65.3048 32.5185 60.224 31.8062 56.8161 28.8176C55.2565 30.3559 53.1599 31.395 51.0049 31.7805C47.3377 32.4377 43.0239 31.8906 40.1566 29.35C38.8308 30.4404 37.3332 31.2041 35.6566 31.5896C33.2021 32.155 30.3713 32.2064 27.946 31.5014C26.222 31.0021 24.6148 30.0953 23.3474 28.8176C21.2033 30.7341 18.3032 31.7254 15.4614 31.9824C7.75445 32.68 0.894875 28.9901 0.0876508 20.7623C-0.719573 12.5345 4.29544 6.64174 12.4809 6.19382H27.336V6.19749ZM20.4144 12.0939H13.0105C10.22 12.0939 7.65218 14.7337 7.14082 17.3735C5.13189 27.7125 19.7825 29.4197 20.4144 19.5287C20.5678 17.1092 20.3011 14.5318 20.4144 12.0939ZM65.8709 12.1196C61.3673 12.5125 58.9967 16.731 59.9756 20.9826C61.5536 27.8373 71.7151 27.83 73.0337 20.81C73.9468 15.96 71.0467 11.668 65.8709 12.1196Z" fill="white"/>
<path d="M160.784 9.18976V15.0862H157.978C157.858 19.2313 158.585 23.6555 156.298 27.3453C154.118 30.8626 150.29 31.887 146.374 32.0742C138.506 32.4524 130.347 31.7805 122.446 32.0742C118.91 32.0448 118.22 27.1617 121.599 26.1998C129.923 25.9355 138.295 26.1557 146.637 26.0897C149.315 25.9061 150.735 24.331 151.057 21.7279L151.144 9.18609H160.784V9.18976Z" fill="white"/>
<path d="M100.647 13.1807C100.834 13.3386 101.06 13.7534 101.246 13.9443C106.378 19.268 112.555 19.9693 118.669 15.6883C123.041 12.6263 126.763 8.46647 130.387 4.57469C131.512 4.0056 132.356 5.12541 131.519 6.06532C126.424 11.7818 121.668 17.8141 116.584 23.538C115.674 24.5623 113.223 27.4701 111.989 27.7235C109.68 28.1971 107.043 24.9405 105.63 23.3617C103.548 21.0377 101.308 18.2253 99.5589 15.6443C99.1169 14.9944 98.3901 14.183 98.927 13.3716C99.3069 12.7988 100.136 12.7401 100.651 13.1807H100.647Z" fill="white"/>
<path d="M112.92 28.6597C114.487 28.3917 115.524 29.4417 116.492 30.4844C120.448 34.7434 124.006 39.5567 128.14 43.6945C128.981 44.7299 127.903 46.0479 126.76 45.2586C125.507 44.3957 124.199 42.7179 122.976 41.6678C117.668 37.1005 110.25 35.8926 104.662 40.783C104.026 41.3374 103.087 42.6481 102.492 43.0043C101.769 43.4338 100.918 43.1621 100.801 42.2846C100.713 41.6164 101.75 40.559 102.17 40.0414C104.738 36.8729 107.934 32.9847 110.798 30.1357C111.306 29.6327 112.211 28.7845 112.924 28.6634L112.92 28.6597Z" fill="white"/>
<path d="M112.92 28.6597C114.487 28.3917 115.524 29.4417 116.492 30.4844C120.448 34.7434 124.006 39.5567 128.14 43.6945C128.981 44.7299 127.903 46.0479 126.76 45.2586C125.507 44.3957 124.199 42.7179 122.976 41.6678C117.668 37.1005 110.25 35.8926 104.662 40.783C104.026 41.3374 103.087 42.6481 102.492 43.0043C101.769 43.4338 100.918 43.1621 100.801 42.2846C100.713 41.6164 101.75 40.559 102.17 40.0414C104.738 36.8729 107.934 32.9847 110.798 30.1357C111.306 29.6327 112.211 28.7845 112.924 28.6634L112.92 28.6597Z" fill="white"/>
<path d="M27.6868 47.6046C27.7488 47.0466 28.0922 46.1654 28.4392 45.7212C29.7286 44.0543 32.9246 44.1498 34.0386 45.9782C34.1628 45.9782 34.6559 45.3026 34.8751 45.1484C36.8986 43.7055 40.4781 44.9098 40.4781 47.6083V53.1082H38.4619V47.6964C38.4619 47.656 38.2355 47.1714 38.1843 47.0943C37.4684 45.9965 35.5362 46.2425 35.1709 47.5606C35.149 47.6377 35.0431 48.1884 35.0431 48.2251V53.1082H33.1145V47.9608C33.1145 47.9277 32.9319 47.3733 32.8954 47.2999C32.3621 46.1911 30.6271 46.092 29.9733 47.0943C29.9221 47.1714 29.6957 47.656 29.6957 47.6964V53.1082H27.6794V47.6083L27.6868 47.6046Z" fill="white"/>
<path d="M110.206 4.37275C114.885 3.73758 117.153 9.35131 113.585 12.0792C110.626 14.3409 106.4 11.8993 106.722 8.1801C106.875 6.39208 108.409 4.61874 110.203 4.37275H110.206Z" fill="white"/>
<path d="M53.0978 44.7445V49.6276C53.0978 49.7121 53.3352 50.3509 53.4009 50.4684C54.0986 51.7791 56.3997 51.7094 57.0755 50.3656C57.1522 50.2114 57.3896 49.4955 57.3896 49.3633V44.7445H59.3181V53.8535C59.3181 54.0481 59.0442 54.7567 58.9419 54.9733C57.5174 57.995 51.75 57.5984 51.1692 54.0738H53.1854C53.6968 55.6158 56.5203 55.6342 57.1302 54.206C57.1887 54.0701 57.3896 53.424 57.3896 53.3248V51.959C56.6152 52.8916 55.797 53.3579 54.5442 53.2771C52.6814 53.1596 51.0815 51.5368 51.0815 49.6276V44.7445H53.0978Z" fill="white"/>
<path d="M50.2926 49.6754H43.3709C43.8019 51.199 45.1095 51.8489 46.6181 51.4854C47.2134 51.3422 47.7248 50.7328 47.7979 50.7328H49.9456C48.4407 54.7641 41.7382 54.0408 41.3547 49.635C40.752 42.6591 50.9574 42.9859 50.2962 49.6754H50.2926ZM48.1047 48.0893C47.6773 45.7505 43.9736 45.7689 43.4622 48.0893H48.1047Z" fill="white"/>
<path d="M72.8109 41.0473V45.8864C74.1697 43.8891 77.2963 44.1975 78.487 46.2131C78.7719 46.6978 79.1189 47.7625 79.1189 48.3059V53.1009H77.1027V48.2178C77.1027 48.1003 76.8251 47.4027 76.7374 47.2632C75.9448 45.9928 73.7094 46.1324 73.0812 47.5239C73.0118 47.6781 72.8072 48.2655 72.8072 48.394V53.1009H70.8787V41.0437H72.8072L72.8109 41.0473Z" fill="white"/>
<path d="M17.0869 53.1045H15.3336V51.6066C14.6835 52.5832 13.9603 53.2294 12.7366 53.3542C6.63315 53.982 6.32268 43.6798 13.5146 44.5867C15.1401 44.7923 17.0869 46.4958 17.0869 48.2178V53.1009V53.1045ZM12.0682 46.4371C9.52601 46.8373 9.44565 51.1183 12.2435 51.4964C16.0751 52.0178 16.1372 45.7946 12.0682 46.4371Z" fill="white"/>
<path d="M69.3957 53.1045H67.6425V51.6066C67.4124 51.5588 67.5073 51.6543 67.4599 51.7351C66.7038 53.0164 65.692 53.4864 64.1835 53.3689C58.847 52.943 59.0589 43.7422 65.8235 44.5903C67.4489 44.7959 69.3957 46.4995 69.3957 48.2214V53.1045ZM64.3771 46.4371C61.8239 46.8373 61.7472 51.1146 64.5524 51.4964C68.373 52.0178 68.4461 45.7946 64.3771 46.4371Z" fill="white"/>
<path d="M26.547 53.1045H24.5308V48.2214C24.5308 48.1223 24.2715 47.4504 24.1984 47.3219C23.4241 45.9929 21.0791 46.1103 20.4582 47.5606C20.4107 47.6707 20.239 48.2361 20.239 48.3096V53.1045H18.3104V47.7809C18.3104 47.6524 18.5296 47.0025 18.5953 46.8336C20.0052 43.2099 26.547 43.8744 26.547 48.3977V53.1045Z" fill="white"/>
<path d="M8.76258 42.0166V44.0396H5.43141V53.1045H3.33117V44.1718L3.19968 44.0396H0V42.0166H8.76258Z" fill="white"/>
<path d="M35.379 35.4373C39.711 34.8425 40.6205 41.1318 36.6501 41.9946C32.0917 42.9859 31.0324 36.0357 35.379 35.4373Z" fill="white"/>
<path d="M43.7873 35.4373C48.101 34.8425 49.0325 41.1281 45.0584 41.9946C40.5 42.9859 39.4334 36.0394 43.7873 35.4373Z" fill="white"/>
<path d="M149.632 0.0587439C153.942 -0.61314 155.082 5.1915 151.47 6.48019C146.82 8.13604 145.278 0.741642 149.632 0.0587439Z" fill="white"/>
<path d="M158.044 0.0587432C163.268 -0.756329 163.337 7.32464 158.132 6.61604C154.56 6.12773 154.593 0.598453 158.044 0.0587432Z" fill="white"/>
</g>
<defs>
<clipPath id="clip0_1_5175">
<rect width="162" height="57" fill="white"/>
</clipPath>
</defs>
</svg>
