<svg width="19" height="36" viewBox="0 0 19 36" fill="none" xmlns="http://www.w3.org/2000/svg">
<path d="M0.248511 20.0462C-0.0384758 18.0499 1.08588 16.7283 2.20238 15.4952C6.76272 10.4556 11.9167 5.9232 16.3473 0.655593C17.4559 -0.414681 18.8673 0.95806 18.022 2.41457C17.0982 4.01067 15.3016 5.67658 14.1772 7.23545C9.28663 13.9968 7.99323 23.4478 13.2298 30.5674C13.8234 31.3771 15.2269 32.573 15.6082 33.3315C16.0682 34.2529 15.7773 35.3371 14.8377 35.486C14.1222 35.5977 12.9899 34.2761 12.4356 33.741C9.04289 30.4697 4.87962 26.398 1.82891 22.7498C1.29031 22.1029 0.382177 20.9489 0.252443 20.0415L0.248511 20.0462Z" fill="white"/>
</svg>
