<svg width="18" height="28" viewBox="0 0 18 28" fill="none" xmlns="http://www.w3.org/2000/svg">
<path d="M17.1729 12.1245C17.441 13.6915 16.3909 14.7288 15.3482 15.6968C11.0893 19.6525 6.27594 23.2102 2.13816 27.3449C1.1028 28.185 -0.215265 27.1075 0.574107 25.9642C1.43691 24.7114 3.11478 23.4038 4.16483 22.1801C8.73217 16.8729 9.94009 9.4545 5.04966 3.86603C4.49526 3.23048 3.18454 2.29176 2.82841 1.69639C2.39884 0.973171 2.67053 0.122114 3.54802 0.00523129C4.21623 -0.082431 5.27362 0.954907 5.7913 1.37496C8.95981 3.94273 12.8479 7.13875 15.697 10.0024C16.2 10.5101 17.0481 11.4159 17.1693 12.1282L17.1729 12.1245Z" fill="white"/>
</svg>
