<svg width="19" height="36" viewBox="0 0 19 36" fill="none" xmlns="http://www.w3.org/2000/svg">
<path d="M18.8223 15.5066C19.1093 17.5029 17.9849 18.8244 16.8684 20.0576C12.3081 25.0972 7.15412 29.6295 2.72351 34.8971C1.61488 35.9674 0.203533 34.5947 1.04877 33.1382C1.97263 31.5421 3.76924 29.8762 4.8936 28.3173C9.78417 21.5559 11.0776 12.105 5.84105 4.98533C5.24742 4.17565 3.84394 2.97973 3.4626 2.22123C3.00263 1.29987 3.29355 0.215633 4.23314 0.0667253C4.94864 -0.0449555 6.08086 1.2766 6.63518 1.81174C10.0279 5.08305 14.1912 9.15474 17.2419 12.803C17.7805 13.4498 18.6886 14.6038 18.8184 15.5112L18.8223 15.5066Z" fill="#EBBC24"/>
</svg>
