<svg width="12" height="12" viewBox="0 0 12 12" fill="none" xmlns="http://www.w3.org/2000/svg">
<path d="M7.35338 8.33036V9.7433C7.35338 10.0424 7.26641 10.192 7.09247 10.192C6.98989 10.192 6.88954 10.1429 6.79142 10.0446V8.02902C6.88954 7.9308 6.98989 7.8817 7.09247 7.8817C7.26641 7.8817 7.35338 8.03125 7.35338 8.33036ZM9.61457 8.33705V8.64509H9.01248V8.33705C9.01248 8.03348 9.11283 7.8817 9.31353 7.8817C9.51422 7.8817 9.61457 8.03348 9.61457 8.33705ZM3.1521 6.87723H3.86793V6.24777H1.78067V6.87723H2.48311V10.6875H3.1521V6.87723ZM5.0788 10.6875H5.67421V7.37946H5.0788V9.91071C4.945 10.0982 4.81789 10.192 4.69748 10.192C4.6172 10.192 4.57037 10.1451 4.55699 10.0513C4.55253 10.0379 4.5503 9.95982 4.5503 9.81696V7.37946H3.95489V9.99777C3.95489 10.2165 3.97273 10.3795 4.00841 10.4866C4.06193 10.6518 4.19127 10.7344 4.39643 10.7344C4.61051 10.7344 4.83796 10.5982 5.0788 10.3259V10.6875ZM7.94878 9.69643V8.37723C7.94878 8.05134 7.92871 7.83036 7.88857 7.71429C7.81275 7.46429 7.65442 7.33929 7.41359 7.33929C7.19059 7.33929 6.9832 7.45982 6.79142 7.70089V6.24777H6.19602V10.6875H6.79142V10.3661C6.99212 10.6116 7.19951 10.7344 7.41359 10.7344C7.65442 10.7344 7.81275 10.6116 7.88857 10.3661C7.92871 10.2455 7.94878 10.0223 7.94878 9.69643ZM10.21 9.62946V9.54241H9.60119C9.60119 9.77009 9.59673 9.90625 9.58781 9.95089C9.55659 10.1116 9.46739 10.192 9.32022 10.192C9.11506 10.192 9.01248 10.0379 9.01248 9.72991V9.14732H10.21V8.45759C10.21 8.10491 10.1498 7.84598 10.0293 7.6808C9.85541 7.45312 9.61903 7.33929 9.32022 7.33929C9.01694 7.33929 8.77833 7.45312 8.60439 7.6808C8.47952 7.84598 8.41708 8.10491 8.41708 8.45759V9.61607C8.41708 9.96875 8.48175 10.2277 8.61108 10.3929C8.78502 10.6205 9.02586 10.7344 9.3336 10.7344C9.65471 10.7344 9.89555 10.6161 10.0561 10.3795C10.1364 10.2589 10.1832 10.1384 10.1966 10.0179C10.2055 9.97768 10.21 9.84821 10.21 9.62946ZM6.1425 3.51562V2.10938C6.1425 1.80134 6.04661 1.64732 5.85483 1.64732C5.66306 1.64732 5.56717 1.80134 5.56717 2.10938V3.51562C5.56717 3.82812 5.66306 3.98438 5.85483 3.98438C6.04661 3.98438 6.1425 3.82812 6.1425 3.51562ZM10.9526 8.54464C10.9526 9.58929 10.8946 10.3705 10.7786 10.8884C10.7162 11.1518 10.5868 11.3728 10.3906 11.5513C10.1944 11.7299 9.96691 11.8326 9.70823 11.8594C8.8876 11.9531 7.64996 12 5.99532 12C4.34068 12 3.10304 11.9531 2.28241 11.8594C2.02374 11.8326 1.79516 11.7299 1.59669 11.5513C1.39823 11.3728 1.27 11.1518 1.21202 10.8884C1.09607 10.3884 1.03809 9.60714 1.03809 8.54464C1.03809 7.5 1.09607 6.71875 1.21202 6.20089C1.27446 5.9375 1.4038 5.71652 1.60004 5.53795C1.79628 5.35938 2.02597 5.25446 2.2891 5.22321C3.10527 5.13393 4.34068 5.08929 5.99532 5.08929C7.64996 5.08929 8.8876 5.13393 9.70823 5.22321C9.96691 5.25446 10.1955 5.35938 10.3939 5.53795C10.5924 5.71652 10.7206 5.9375 10.7786 6.20089C10.8946 6.70089 10.9526 7.48214 10.9526 8.54464ZM4.27601 0H4.95838L4.1489 2.67188V4.48661H3.47991V2.67188C3.41747 2.34152 3.28144 1.8683 3.07182 1.25223C2.90681 0.792411 2.76186 0.375 2.63698 0H3.34611L3.8211 1.76116L4.27601 0ZM6.75128 2.22991V3.40179C6.75128 3.76339 6.68884 4.02679 6.56397 4.19196C6.39449 4.41964 6.15811 4.53348 5.85483 4.53348C5.55602 4.53348 5.32187 4.41964 5.15239 4.19196C5.02751 4.02232 4.96507 3.75893 4.96507 3.40179V2.22991C4.96507 1.87277 5.02751 1.61161 5.15239 1.44643C5.32187 1.21875 5.55602 1.10491 5.85483 1.10491C6.15811 1.10491 6.39449 1.21875 6.56397 1.44643C6.68884 1.61161 6.75128 1.87277 6.75128 2.22991ZM8.99241 1.14509V4.48661H8.38363V4.1183C8.14725 4.39509 7.91756 4.53348 7.69456 4.53348C7.48941 4.53348 7.35784 4.45089 7.29986 4.28571C7.26418 4.17857 7.24634 4.01116 7.24634 3.78348V1.14509H7.85512V3.60268C7.85512 3.75 7.85735 3.82812 7.86181 3.83705C7.87519 3.93527 7.92202 3.98438 8.0023 3.98438C8.12272 3.98438 8.24983 3.88839 8.38363 3.69643V1.14509H8.99241Z" fill="white"/>
</svg>
