<svg width="19" height="36" viewBox="0 0 19 36" fill="none" xmlns="http://www.w3.org/2000/svg">
<path d="M18.8223 15.5068C19.1093 17.5031 17.9849 18.8247 16.8684 20.0578C12.3081 25.0974 7.15412 29.6298 2.72351 34.8974C1.61488 35.9677 0.203533 34.5949 1.04877 33.1384C1.97263 31.5423 3.76924 29.8764 4.8936 28.3175C9.78417 21.5562 11.0776 12.1052 5.84105 4.98558C5.24742 4.17589 3.84394 2.97998 3.4626 2.22148C3.00263 1.30011 3.29355 0.215877 4.23314 0.0669694C4.94864 -0.0447114 6.08086 1.27684 6.63518 1.81198C10.0279 5.08329 14.1912 9.15498 17.2419 12.8032C17.7805 13.45 18.6886 14.6041 18.8184 15.5115L18.8223 15.5068Z" fill="white"/>
</svg>
